<svg xmlns="http://www.w3.org/2000/svg" width="22" height="22" viewBox="0 0 22 22">
    <g fill="none" fill-rule="evenodd">
        <path stroke="#FFFFFF" stroke-linecap="square" d="M8.237 2h5.526C18.806 2 20 3.194 20 8.237v5.526C20 18.806 18.806 20 13.763 20H8.237C3.194 20 2 18.806 2 13.763V8.237C2 3.194 3.194 2 8.237 2"/>
        <path fill="#FFFFFF" d="M16.868 8.21c.091-.297 0-.512-.404-.512H15.12c-.339 0-.495.188-.587.39 0 0-.691 1.727-1.656 2.846-.313.324-.457.432-.626.432-.092 0-.209-.108-.209-.405V8.197c0-.351-.104-.513-.391-.513H9.538a.329.329 0 0 0-.34.324c0 .337.483.418.535 1.362v2.05c0 .445-.078.526-.247.526-.457 0-1.566-1.74-2.23-3.722-.131-.391-.262-.54-.6-.54H5.298c-.392 0-.457.189-.457.391 0 .364.457 2.198 2.126 4.626 1.109 1.659 2.687 2.549 4.109 2.549.86 0 .965-.203.965-.54v-1.254c0-.404.078-.472.352-.472.196 0 .548.108 1.344.904.913.944 1.07 1.375 1.578 1.375h1.343c.392 0 .574-.202.47-.593-.117-.391-.56-.958-1.135-1.632-.313-.378-.782-.796-.926-.998-.196-.27-.143-.378 0-.62-.013 0 1.63-2.4 1.8-3.21"/>
    </g>
</svg>
