<svg xmlns="http://www.w3.org/2000/svg" version="1.1" id="Capa_1" x="0" y="0" xml:space="preserve" width="512" height="512"><path d="M256 0C114.833 0 0 114.844 0 256s114.833 256 256 256 256-114.844 256-256S397.167 0 256 0zm0 426.667c-11.771 0-21.333-9.573-21.333-21.333 0-11.76 9.563-21.333 21.333-21.333s21.333 9.573 21.333 21.333c0 11.76-9.562 21.333-21.333 21.333zM277.333 352a10.66 10.66 0 01-10.667 10.667h-21.333A10.66 10.66 0 01234.666 352V96a10.66 10.66 0 0110.667-10.667h21.333A10.66 10.66 0 01277.333 96v256z" data-original="#000000" class="active-path" data-old_color="#000000" fill="#DB2A1B"/></svg>