<svg xmlns="http://www.w3.org/2000/svg" width="50" height="60"><path fill="#006845" d="M36.667 0L37 .321V0l8.006 8.006L50 12.8V60H0V0h36.667zm-.805 2H2v56h46V13.652L47.321 13H37V3.092L35.862 2zM16.421 26.2c1.05 0 1.89.28 2.492.826.616.546.924 1.246.924 2.128 0 .882-.308 1.596-.924 2.142-.602.546-1.442.826-2.492.826h-2.268V36h-2.016v-9.8h4.284zm8.61 0c1.582 0 2.884.462 3.878 1.372.994.91 1.498 2.086 1.498 3.528 0 1.442-.504 2.632-1.498 3.542-.994.91-2.296 1.358-3.878 1.358h-3.668v-9.8h3.668zm14.378 0v1.806h-5.166v1.988h3.99v1.778h-3.99V36h-2.016v-9.8h7.182zm-14.546 1.806h-1.484v6.188h1.484c2.184 0 3.472-1.148 3.472-3.094s-1.288-3.094-3.472-3.094zm-8.582-.042h-2.128V30.4h2.128c.966 0 1.54-.434 1.54-1.218s-.574-1.218-1.54-1.218z"/></svg>