<svg xmlns="http://www.w3.org/2000/svg" width="22" height="22"><g fill="none" fill-rule="evenodd"><path stroke="#FFF" stroke-linecap="square" d="M20.358 5.806a2.51 2.51 0 00-1.748-1.795c-1.542-.424-7.724-.424-7.724-.424s-6.183 0-7.725.424a2.51 2.51 0 00-1.748 1.795C1 7.389 1 10.692 1 10.692s0 3.303.413 4.886a2.51 2.51 0 001.748 1.795c1.542.424 7.725.424 7.725.424s6.182 0 7.724-.424a2.51 2.51 0 001.748-1.795c.413-1.583.413-4.886.413-4.886s0-3.303-.413-4.886"/><path fill="#FFF" d="M9 13.587v-5l5 2.5z"/></g></svg>