<svg xmlns="http://www.w3.org/2000/svg" xmlns:xlink="http://www.w3.org/1999/xlink" width="159" height="35" viewBox="0 0 159 35">
    <defs>
        <path id="prefix__a" d="M0 0.076L66.792 0.076 66.792 33.712 0 33.712z"/>
        <path id="prefix__c" d="M0.093 0.194L80.835 0.194 80.835 21.992 0.093 21.992z"/>
    </defs>
    <g fill="none" fill-rule="evenodd">
        <mask id="prefix__b" fill="#fff">
            <use xlink:href="#prefix__a"/>
        </mask>
        <path fill="#009639" d="M63.628.076H47.774l-7.438 23.103h12.319l-3.39 10.533h13.882l2.095-6.738h-6.074l7.414-23.02c.726-2.237-.473-3.878-2.954-3.878zM36.946 33.712h7.738l2.153-6.689H39.1l-2.153 6.689zM35.458.076L24.63 33.712h7.738L43.196.076h-7.738zm-12.317 0L12.314 33.712h7.738L30.88.076H23.14zm-8.308 0h3.733L7.738 33.712H0L9.645 3.75c.8-2.427 2.315-3.674 5.188-3.674z" mask="url(#prefix__b)"/>
        <g transform="translate(78 5)">
            <mask id="prefix__d" fill="#fff">
                <use xlink:href="#prefix__c"/>
            </mask>
            <path fill="#FEFEFE" d="M63.06 5.288l1.126-3.454h2.055l1.126 3.454H63.06zM67.982.765c-.13-.403-.305-.57-.74-.57h-4.06c-.436 0-.61.167-.741.57L59.923 8.49h2.09l.515-1.568h5.371l.51 1.568h2.086L67.982.765zM37.73 5.288l1.126-3.454h2.055l1.126 3.454H37.73zM42.653.765c-.132-.403-.306-.57-.741-.57h-4.06c-.436 0-.61.167-.74.57l-2.59 7.725h2.16l.516-1.568h5.372l.509 1.568h2.085L42.653.765zM3.23 5.288l1.126-3.454H6.41l1.126 3.454H3.23zM8.152.765c-.13-.403-.305-.57-.74-.57h-4.06c-.436 0-.61.167-.741.57L.093 8.49h2.089l.516-1.568h5.371l.51 1.568h2.085L8.152.765zm41.003 2.068V8.49h-1.992V.747c0-.4.152-.551.552-.551h1.734l3.123 3.824L55.696.196h1.733c.4 0 .553.152.553.55V8.49h-1.993V2.833l-3.417 4.099-3.417-4.1zm28.568 9.588v6.72h-2.594v-6.72h-3.112v6.72h-2.594v-6.72h-2.482c-.456 0-.63.174-.63.63v8.843h14.525V13.05c0-.455-.174-.629-.63-.629h-2.483zm-32.309 7.92l3.037-3.562v5.115h3.112V13.05c0-.455-.174-.629-.63-.629H48.45l-3.037 3.562-3.036-3.562h-2.483c-.456 0-.63.174-.63.63v8.843h3.113v-5.115l3.036 3.561zm-14.413 0l3.037-3.562v5.115h3.112V13.05c0-.455-.173-.629-.63-.629h-2.482L31 15.983l-3.036-3.562h-2.482c-.457 0-.63.174-.63.63v8.843h3.112v-5.115L31 20.34zm1.023-15.998l-.11-.055c.558-.338.856-.962.856-1.715 0-1.527-1.23-2.38-3.38-2.38h-5.53l.535 1.635h5.27c1.094.022 1.213.728 1.213.972 0 .232-.132.724-.866.724h-3.638v1.638h3.845c.734 0 .866.492.866.724 0 .244-.119.95-1.212.972h-6.004v1.634h5.658c2.15 0 3.45-.852 3.45-2.378 0-.797-.338-1.455-.953-1.771zm40.022 1.026c0 2.217 1.123 3.121 3.878 3.121h4.912V6.783h-4.912c-.544 0-.962-.1-1.277-.304-.278-.18-.61-.53-.61-1.179V3.386c0-.649.332-1 .61-1.18.315-.203.733-.303 1.277-.303h4.345l.567-1.707h-4.912c-2.755 0-3.878.904-3.878 3.121V5.37zm-51.87-1.564c0 .649-.193 1-.471 1.18-.315.203-.803.303-1.347.303h-3.685V1.834h3.685c.544 0 1.032.1 1.347.304.278.18.472.53.472 1.18v.487zm1.993-.488c0-2.217-1.124-3.121-3.879-3.121h-5.61V8.49h1.993V6.926h3.617c2.755 0 3.879-.904 3.879-3.121v-.488zM60.494 17.95l-.945-2.899h-1.124l-.945 2.9h3.014zm1.612-5.077l2.933 9.022h-3.264l-.466-1.444h-4.643l-.481 1.444h-3.264l2.94-9.023c.088-.268.338-.45.621-.45h5.003c.283 0 .534.182.621.45zm-43.548 6.385c.842 0 1.366-.267 1.366-.956v-2.288c0-.688-.524-.956-1.366-.956h-2.732c-.843 0-1.367.268-1.367.956v2.288c0 .689.524.956 1.367.956h2.732zm-.013-6.935c2.847 0 4.467.973 4.467 3.701v2.268c0 2.728-1.62 3.7-4.467 3.7h-2.707c-2.847 0-4.466-.972-4.466-3.7v-2.268c0-2.728 1.62-3.7 4.466-3.7h2.707zM3.21 16.728l3.669-4.307h3.707L6.79 16.867l4.277 5.027H7.36L3.21 17.03v4.863H.097V13.05c0-.455.174-.629.63-.629H3.21v4.307z" mask="url(#prefix__d)"/>
        </g>
    </g>
</svg>
